<svg xmlns="http://www.w3.org/2000/svg" viewBox="0 0 16 16">
<rect style="fill:#0043ce" width="16" height="16" rx="8"/>
</svg>

<svg xmlns="http://www.w3.org/2000/svg" viewBox="0 0 16 16">
<rect style="fill:#0043ce" width="16" height="16"/>
<path style="fill:#edf5ff" d="M6,11V10H7v1Zm2,1V11H7v1ZM5,8H3V6H7V5H2v7H3V9H5v1H6V9H7V8H5ZM7,7V8H8V6H7Zm4,3h3V9H10v1Zm1-4h1V5H10V6h2Zm1,0V7H10V6H9V9h1V8h4V6Z"/>
</svg>

<svg xmlns="http://www.w3.org/2000/svg" viewBox="0 0 8 8">
<rect style="fill:#0f0f0f" x="2" y="3" width="3" height="1"/>
<path style="fill:#0043ce" d="M0,1V8H7V1ZM6,7H1V2H6Z"/>
</svg>

<svg xmlns="http://www.w3.org/2000/svg" viewBox="0 0 8 8">
<rect style="fill:#0f0f0f" x="6" y="1" width="1" height="5"/>
<polygon style="fill:#0043ce" points="4 2 5 2 5 8 4 8 1 8 0 8 0 1 1 1 4 1 4 2 1 2 1 7 4 7 4 2"/>
</svg>

<svg xmlns="http://www.w3.org/2000/svg" viewBox="0 0 8 8">
<rect style="fill:#0f0f0f" x="6" y="2" width="1" height="5"/>
<path style="fill:#0043ce" d="M1,1H2V2H1ZM2,3H3V2H2ZM3,5V6H4V5H5V4H4V3H3V4H0V5ZM3,7V6H2V7ZM2,8V7H1V8Z"/>
</svg>

<svg xmlns="http://www.w3.org/2000/svg" viewBox="0 0 8 8">
<rect style="fill:#0f0f0f" y="2" width="1" height="5"/>
<path style="fill:#0043ce" d="M4,1V2H3V1ZM4,2V3H5V2ZM6,4V3H5V4H2V5H5V6H6V5H7V4ZM4,7H5V6H4ZM3,8H4V7H3Z"/>
</svg>

<svg xmlns="http://www.w3.org/2000/svg" viewBox="0 0 8 8">
<path style="fill:#0043ce" d="M1,8V7H6V8ZM6,2V3H7V2ZM5,3V4H6V3ZM3,4H2V5H3V6H4V5H5V4H4V1H3ZM1,4H2V3H1ZM0,3H1V2H0Z"/>
</svg>

<svg xmlns="http://www.w3.org/2000/svg" viewBox="0 0 8 8">
<path style="fill:#0043ce" d="M1,8V7H6V8ZM0,5H1V4H0ZM1,4H2V3H1ZM3,2H2V3H3V6H4V3H5V2H4V1H3ZM6,4V3H5V4ZM7,5V4H6V5Z"/>
</svg>

<svg xmlns="http://www.w3.org/2000/svg" viewBox="0 0 8 8">
<path style="fill:#0043ce" d="M6,2H1V1H6ZM0,2V5H1V2ZM6,2V5H7V2ZM1,6H3V8H4V6H6V5H1Z"/>
</svg>

<svg xmlns="http://www.w3.org/2000/svg" viewBox="0 0 8 8">
<path style="fill:#0043ce" d="M6,2H1V1H6ZM0,2V7H1V2ZM6,2V7H7V2ZM1,8H6V7H1ZM4,3H3V5H5V4H4Z"/>
</svg>

<svg xmlns="http://www.w3.org/2000/svg" viewBox="0 0 8 8">
<path style="fill:#0043ce" d="M3,6H4V8H3ZM1,4V5H2V4ZM0,1V4H1V2H6V4H7V1ZM2,5V6H3V5ZM5,5H6V4H5ZM4,6H5V5H4Z"/>
</svg>

<svg xmlns="http://www.w3.org/2000/svg" viewBox="0 0 8 8">
<path style="fill:#0043ce" d="M0,7H7V8H0ZM0,5H7V4H0ZM0,1V2H7V1Z"/>
</svg>

<svg xmlns="http://www.w3.org/2000/svg" viewBox="0 0 8 8">
<path style="fill:#0043ce" d="M0,7H3V8H0ZM0,5H5V4H0ZM0,1V2H7V1Z"/>
</svg>

<svg xmlns="http://www.w3.org/2000/svg" viewBox="0 0 8 8">
<path style="fill:#0043ce" d="M3,7H5V8H3ZM2,6V7H3V6ZM1,5V6H2V5ZM6,6H7V5H6ZM5,7H6V6H5ZM3,0V1H5V0ZM2,2H3V1H2ZM1,3H2V2H1ZM6,2V3H7V2ZM5,1V2H6V1Z"/>
</svg>

<svg xmlns="http://www.w3.org/2000/svg" viewBox="0 0 8 8">
<path style="fill:#0043ce" d="M7,2H1V1H7ZM7,4V8H1V4H7ZM6,5H2V7H6Z"/>
</svg>

<svg xmlns="http://www.w3.org/2000/svg" viewBox="0 0 8 8">
<path style="fill:#0043ce" d="M6,2H1V8H7V2ZM6,7H2V3H6Z"/>
</svg>

<svg xmlns="http://www.w3.org/2000/svg" viewBox="0 0 8 8">
<polygon style="fill:#0043ce" points="7 2 1 2 1 8 7 8 7 2 7 2"/>
</svg>

<svg xmlns="http://www.w3.org/2000/svg" viewBox="0 0 8 8">
<path style="fill:#0043ce" d="M6,1V2H7V1ZM3,2H4V1H3ZM6,8H7V7H6ZM6,5H7V4H6ZM3,7V8H4V7ZM3,5H4V4H3Z"/>
</svg>

<svg xmlns="http://www.w3.org/2000/svg" viewBox="0 0 8 8">
<path style="fill:#0043ce" d="M6,5V4H7V5ZM5,6H6V5H5ZM4,7H5V6H4ZM5,3V2H4V3ZM6,4V3H5V4ZM4,8V7H3V8ZM3,2H4V1H3Z"/>
</svg>

<svg xmlns="http://www.w3.org/2000/svg" viewBox="0 0 8 8">
<path style="fill:#0043ce" d="M3,3H4V4H3ZM2,3H3V2H2ZM1,1V2H2V1ZM7,8H8V7H7ZM6,7H7V6H6ZM5,5V6H6V5ZM6,3H5V4H6ZM7,2H6V3H7ZM7,1V2H8V1ZM2,7H1V8H2ZM3,6H2V7H3ZM3,5V6H4V5ZM5,4H4V5H5Z"/>
</svg>

<svg xmlns="http://www.w3.org/2000/svg" viewBox="0 0 8 8">
<path style="fill:#0043ce" d="M2,7H5V8H1V4H2ZM7,1H4V2H7V5H8V1Z"/>
</svg>

<svg xmlns="http://www.w3.org/2000/svg" viewBox="0 0 8 8">
<polygon style="fill:#0043ce" points="5 4 5 1 4 1 4 4 1 4 1 5 4 5 4 8 5 8 5 5 8 5 8 4 5 4"/>
</svg>

<svg xmlns="http://www.w3.org/2000/svg" viewBox="0 0 8 8">
<path style="fill:#0043ce" d="M4,6H5V7H4ZM3,5V6H4V5ZM2,4V5H3V4ZM6,5H7V4H6ZM5,6H6V5H5ZM1,4H2V3H1ZM7,3V4H8V3Z"/>
</svg>

<svg xmlns="http://www.w3.org/2000/svg" viewBox="0 0 10 8">
<path style="fill:#0043ce" d="M0,2V8H10V2H0ZM5,3H9V7H5Z"/>
</svg>

<svg xmlns="http://www.w3.org/2000/svg" viewBox="0 0 8 8">
<circle style="fill:#0043ce" cx="4.5" cy="4.5" r="3.5"/>
</svg>

<svg xmlns="http://www.w3.org/2000/svg" viewBox="0 0 8 8">
<circle style="fill:#4589ff" cx="4.5" cy="4.5" r="3.5"/>
</svg>

<svg xmlns="http://www.w3.org/2000/svg" viewBox="0 0 8 8">
<circle style="fill:#a6c8ff" cx="4.5" cy="4.5" r="3.5"/>
</svg>

<svg xmlns="http://www.w3.org/2000/svg" viewBox="0 0 12 8">
<path style="fill:#0043ce" d="M1,1V7H11V1H1ZM6,2h4V6H6Z"/>
</svg>
